<svg width="285" height="60" viewBox="0 0 285 60" fill="none" xmlns="http://www.w3.org/2000/svg">
<path d="M27.312 46V10.96H34.128V46H27.312ZM4.32 46V10.96H11.136V46H4.32ZM9.888 31.456V25.456H28.56V31.456H9.888ZM53.8935 46.912C51.6535 46.912 49.6855 46.528 47.9895 45.76C46.3255 44.992 44.9335 43.968 43.8135 42.688C42.7255 41.376 41.8935 39.92 41.3175 38.32C40.7735 36.72 40.5015 35.088 40.5015 33.424V32.512C40.5015 30.784 40.7735 29.12 41.3175 27.52C41.8935 25.888 42.7255 24.448 43.8135 23.2C44.9335 21.92 46.3095 20.912 47.9415 20.176C49.5735 19.408 51.4615 19.024 53.6055 19.024C56.4215 19.024 58.7735 19.648 60.6615 20.896C62.5815 22.112 64.0215 23.728 64.9815 25.744C65.9415 27.728 66.4215 29.872 66.4215 32.176V34.576H43.3335V30.496H62.2455L60.1815 32.512C60.1815 30.848 59.9415 29.424 59.4615 28.24C58.9815 27.056 58.2455 26.144 57.2535 25.504C56.2935 24.864 55.0775 24.544 53.6055 24.544C52.1335 24.544 50.8855 24.88 49.8615 25.552C48.8375 26.224 48.0535 27.2 47.5095 28.48C46.9975 29.728 46.7415 31.232 46.7415 32.992C46.7415 34.624 46.9975 36.08 47.5095 37.36C48.0215 38.608 48.8055 39.6 49.8615 40.336C50.9175 41.04 52.2615 41.392 53.8935 41.392C55.5255 41.392 56.8535 41.072 57.8775 40.432C58.9015 39.76 59.5575 38.944 59.8455 37.984H65.9895C65.6055 39.776 64.8695 41.344 63.7815 42.688C62.6935 44.032 61.3015 45.072 59.6055 45.808C57.9415 46.544 56.0375 46.912 53.8935 46.912ZM72.3311 46V10.96H79.0031V46H72.3311ZM69.0671 15.952V10.96H79.0031V15.952H69.0671ZM86.6201 55.6V19.936H91.9001V31.168L91.0841 31.12C91.2121 28.464 91.7561 26.24 92.7161 24.448C93.7081 22.656 95.0201 21.328 96.6521 20.464C98.2841 19.568 100.108 19.12 102.124 19.12C103.98 19.12 105.644 19.456 107.116 20.128C108.62 20.8 109.9 21.744 110.956 22.96C112.044 24.176 112.876 25.6 113.452 27.232C114.028 28.832 114.316 30.56 114.316 32.416V33.424C114.316 35.312 114.028 37.072 113.452 38.704C112.908 40.304 112.092 41.728 111.004 42.976C109.948 44.192 108.668 45.152 107.164 45.856C105.66 46.528 103.98 46.864 102.124 46.864C100.172 46.864 98.3801 46.464 96.7481 45.664C95.1481 44.832 93.8521 43.568 92.8601 41.872C91.8681 40.144 91.3081 37.92 91.1801 35.2L93.2921 38.416V55.6H86.6201ZM100.444 41.248C101.884 41.248 103.132 40.896 104.188 40.192C105.276 39.488 106.124 38.512 106.732 37.264C107.34 35.984 107.644 34.544 107.644 32.944C107.644 31.28 107.34 29.84 106.732 28.624C106.124 27.408 105.276 26.464 104.188 25.792C103.132 25.088 101.884 24.736 100.444 24.736C99.1321 24.736 97.9161 25.024 96.7961 25.6C95.7081 26.176 94.8121 27.024 94.1081 28.144C93.4361 29.264 93.1001 30.608 93.1001 32.176V34.096C93.1001 35.6 93.4521 36.88 94.1561 37.936C94.8601 38.992 95.7721 39.808 96.8921 40.384C98.0121 40.96 99.1961 41.248 100.444 41.248ZM120.711 46V10.96H130.023L138.807 31.888H139.671L148.407 10.96H157.863V46H151.095V16.096L151.959 16.192L142.503 38.848H135.543L126.039 16.192L126.951 16.096V46H120.711ZM177.644 46.912C175.404 46.912 173.436 46.528 171.74 45.76C170.076 44.992 168.684 43.968 167.564 42.688C166.476 41.376 165.644 39.92 165.068 38.32C164.524 36.72 164.252 35.088 164.252 33.424V32.512C164.252 30.784 164.524 29.12 165.068 27.52C165.644 25.888 166.476 24.448 167.564 23.2C168.684 21.92 170.06 20.912 171.692 20.176C173.324 19.408 175.212 19.024 177.356 19.024C180.172 19.024 182.524 19.648 184.412 20.896C186.332 22.112 187.772 23.728 188.732 25.744C189.692 27.728 190.172 29.872 190.172 32.176V34.576H167.084V30.496H185.996L183.932 32.512C183.932 30.848 183.692 29.424 183.212 28.24C182.732 27.056 181.996 26.144 181.004 25.504C180.044 24.864 178.828 24.544 177.356 24.544C175.884 24.544 174.636 24.88 173.612 25.552C172.588 26.224 171.804 27.2 171.26 28.48C170.748 29.728 170.492 31.232 170.492 32.992C170.492 34.624 170.748 36.08 171.26 37.36C171.772 38.608 172.556 39.6 173.612 40.336C174.668 41.04 176.012 41.392 177.644 41.392C179.276 41.392 180.604 41.072 181.628 40.432C182.652 39.76 183.308 38.944 183.596 37.984H189.74C189.356 39.776 188.62 41.344 187.531 42.688C186.444 44.032 185.052 45.072 183.356 45.808C181.692 46.544 179.788 46.912 177.644 46.912ZM212.737 46.912C209.569 46.912 206.817 46.352 204.481 45.232C202.177 44.112 200.257 42.656 198.721 40.864C197.217 39.04 196.081 37.088 195.313 35.008C194.577 32.896 194.209 30.864 194.209 28.912V27.856C194.209 25.712 194.593 23.584 195.361 21.472C196.129 19.328 197.281 17.392 198.817 15.664C200.385 13.936 202.321 12.56 204.625 11.536C206.929 10.48 209.633 9.952 212.737 9.952C215.809 9.952 218.497 10.48 220.801 11.536C223.105 12.56 225.025 13.936 226.561 15.664C228.129 17.392 229.297 19.328 230.065 21.472C230.833 23.584 231.217 25.712 231.217 27.856V28.912C231.217 30.864 230.833 32.896 230.065 35.008C229.329 37.088 228.193 39.04 226.657 40.864C225.153 42.656 223.233 44.112 220.897 45.232C218.593 46.352 215.873 46.912 212.737 46.912ZM212.737 40.576C214.529 40.576 216.129 40.256 217.537 39.616C218.977 38.976 220.193 38.096 221.185 36.976C222.209 35.824 222.977 34.528 223.489 33.088C224.033 31.616 224.305 30.064 224.305 28.432C224.305 26.672 224.033 25.056 223.489 23.584C222.977 22.112 222.209 20.832 221.185 19.744C220.193 18.656 218.977 17.808 217.537 17.2C216.097 16.592 214.497 16.288 212.737 16.288C210.945 16.288 209.329 16.592 207.889 17.2C206.449 17.808 205.217 18.656 204.193 19.744C203.201 20.832 202.433 22.112 201.889 23.584C201.377 25.056 201.121 26.672 201.121 28.432C201.121 30.064 201.377 31.616 201.889 33.088C202.433 34.528 203.201 35.824 204.193 36.976C205.217 38.096 206.449 38.976 207.889 39.616C209.329 40.256 210.945 40.576 212.737 40.576ZM246.156 46.816C243.148 46.816 240.812 45.824 239.148 43.84C237.516 41.856 236.7 38.912 236.7 35.008V19.888H243.372V35.584C243.372 37.184 243.82 38.464 244.716 39.424C245.612 40.352 246.828 40.816 248.364 40.816C249.9 40.816 251.148 40.32 252.108 39.328C253.1 38.336 253.596 36.992 253.596 35.296V19.888H260.268V46H254.988V34.912H255.516C255.516 37.536 255.18 39.728 254.508 41.488C253.836 43.248 252.828 44.576 251.484 45.472C250.14 46.368 248.46 46.816 246.444 46.816H246.156ZM279.261 46.336C276.861 46.336 274.877 46.032 273.309 45.424C271.773 44.784 270.621 43.728 269.853 42.256C269.085 40.752 268.701 38.736 268.701 36.208L268.749 12.592H274.989L274.941 36.64C274.941 37.92 275.277 38.912 275.949 39.616C276.653 40.288 277.645 40.624 278.925 40.624H283.005V46.336H279.261ZM264.573 24.832V19.936H283.005V24.832H264.573Z" fill="black"/>
</svg>
